<?xml version="1.0" encoding="UTF-8" standalone="no"?>
<svg
   width="256"
   height="256"
   viewBox="0 0 256 256"
   version="1.1"
   id="svg4"
   sodipodi:docname="logo-chatgpt-for-inkscape.svg"
   inkscape:version="1.4 (e7c3feb100, 2024-10-09)"
   inkscape:export-filename="logo-draft-v1.png"
   inkscape:export-xdpi="96"
   inkscape:export-ydpi="96"
   xmlns:inkscape="http://www.inkscape.org/namespaces/inkscape"
   xmlns:sodipodi="http://sodipodi.sourceforge.net/DTD/sodipodi-0.dtd"
   xmlns="http://www.w3.org/2000/svg"
   xmlns:svg="http://www.w3.org/2000/svg">
  <sodipodi:namedview
     id="namedview4"
     pagecolor="#ffffff"
     bordercolor="#000000"
     borderopacity="0.25"
     inkscape:showpageshadow="2"
     inkscape:pageopacity="0.0"
     inkscape:pagecheckerboard="0"
     inkscape:deskcolor="#d1d1d1"
     inkscape:zoom="4.5273438"
     inkscape:cx="127.88956"
     inkscape:cy="21.977567"
     inkscape:window-width="2560"
     inkscape:window-height="1368"
     inkscape:window-x="0"
     inkscape:window-y="0"
     inkscape:window-maximized="1"
     inkscape:current-layer="svg4" />
  <defs
     id="defs2">
    <linearGradient
       id="grad1"
       x1="0%"
       y1="0%"
       x2="100%"
       y2="100%">
      <stop
         offset="0%"
         stop-color="#4FC3F7"
         id="stop1" />
      <stop
         offset="100%"
         stop-color="#1565C0"
         id="stop2" />
    </linearGradient>
  </defs>
  <!-- Map Pin -->
  <path
     d="M128 20C80 20 48 52 48 96c0 52 80 140 80 140s80-88 80-140c0-44-32-76-80-76z"
     fill="url(#grad1)"
     id="path2" />
  <!-- Inner circle -->
  <path
     fill="#ffffff"
     id="circle2"
     sodipodi:type="arc"
     sodipodi:cx="128"
     sodipodi:cy="96"
     sodipodi:rx="54.798965"
     sodipodi:ry="54.798965"
     sodipodi:start="0"
     sodipodi:end="6.2793699"
     sodipodi:arc-type="slice"
     d="M 182.79897,96 A 54.798965,54.798965 0 0 1 128.05227,150.79894 54.798965,54.798965 0 0 1 73.201134,96.10454 54.798965,54.798965 0 0 1 127.84319,41.201259 54.798965,54.798965 0 0 1 182.79857,95.79092 L 128,96 Z" />
  <!-- Download arrow -->
  <path
     d="m 128,59.397757 v 61.204483 m 0,0 -24.48179,-24.481791 M 128,120.60224 152.48179,96.120449"
     stroke="#1565c0"
     stroke-width="8"
     stroke-linecap="round"
     stroke-linejoin="round"
     fill="none"
     id="path3" />
  <!-- Waves -->
</svg>
